<svg width="20" height="13" viewBox="0 0 20 13" fill="none" xmlns="http://www.w3.org/2000/svg">
<path fill-rule="evenodd" clip-rule="evenodd" d="M9.99989 0C5.66655 0 1.96589 2.69533 0.466553 6.5C1.96589 10.3047 5.66655 13 9.99989 13C14.3332 13 18.0339 10.3047 19.5332 6.5C18.0339 2.69533 14.3332 0 9.99989 0ZM9.99933 10.8333C7.60733 10.8333 5.666 8.892 5.666 6.5C5.666 4.108 7.60733 2.16667 9.99933 2.16667C12.3913 2.16667 14.3327 4.108 14.3327 6.5C14.3327 8.892 12.3913 10.8333 9.99933 10.8333ZM9.99976 3.9C8.56109 3.9 7.39976 5.06133 7.39976 6.5C7.39976 7.93867 8.56109 9.1 9.99976 9.1C11.4384 9.1 12.5998 7.93867 12.5998 6.5C12.5998 5.06133 11.4384 3.9 9.99976 3.9Z" fill="#1E324A"/>
</svg>
