<svg width="68" height="87" viewBox="0 0 68 87" fill="none" xmlns="http://www.w3.org/2000/svg">
<path d="M16.96 1.91566L20.7873 0L17.9163 12.0413L16.96 1.91566Z" fill="#6BF155"/>
<path d="M29.1352 56.1688C29.1634 55.3929 29.2122 53.876 30.3208 52.5114C31.1428 51.4995 32.3359 50.7716 33.7272 50.5591C33.7272 47.6861 33.7272 44.8121 33.7272 41.9391C32.4824 42.0341 30.7323 42.0219 28.7247 41.5291C25.709 40.788 23.5906 39.321 22.437 38.3815C23.0288 36.0097 23.6216 33.638 24.2134 31.2662C21.5088 30.1113 18.8041 28.9565 16.0995 27.8016C15.92 27.7245 15.7397 27.6483 15.5602 27.5712C15.347 27.48 15.1328 27.3888 14.9195 27.2976V4.17334C12.4328 5.76549 7.18977 9.5968 3.57478 16.6246C-0.462951 24.4744 -0.133206 31.7674 0.157082 34.6865C0.430461 37.332 0.703839 39.9774 0.977217 42.6228C2.20789 47.9381 4.5612 55.2171 9.31479 62.874C17.3555 75.8247 27.9224 82.8619 33.7272 86.1356C33.7826 78.9291 33.8371 71.7225 33.8925 64.516C33.2594 64.0355 28.9727 60.6922 29.1352 56.1688ZM21.7671 37.332C21.676 37.631 21.5896 37.9301 21.5107 38.232C21.5285 38.3448 21.4975 38.453 21.4346 38.5423C21.4261 38.5818 21.4139 38.6194 21.4064 38.6589C21.4045 38.6702 21.3951 38.673 21.3923 38.6834C21.2843 39.2476 20.8408 39.4301 20.3899 39.2495C20.3805 39.2457 20.3711 39.241 20.3617 39.2363C20.2405 39.1837 20.1203 39.1113 20.0057 39.0059C19.3603 38.4106 18.9253 37.5548 18.5063 36.795C17.2296 34.4815 15.3244 32.5677 14.9956 29.8301C14.9599 29.5339 15.2117 29.4164 15.4437 29.4624C15.47 29.4465 15.4945 29.4258 15.5236 29.4145C15.6063 29.3543 15.7152 29.3298 15.8458 29.374C18.1108 30.1396 20.1842 31.4185 22.5431 31.9057C22.6192 31.9217 22.6746 31.9555 22.7197 31.996C22.7385 32.0035 22.7592 32.0044 22.7761 32.0148C22.9753 32.1314 23.0119 32.3684 22.9198 32.5649C22.3684 33.7452 22.2115 35.0589 21.9663 36.3379C21.9278 36.6718 21.8677 37 21.7671 37.332Z" fill="#6BF155"/>
<path d="M50.8587 2.78187L47.0314 0.866211L49.9014 12.9075L50.8587 2.78187Z" fill="#5ACE47"/>
<path d="M33.8935 64.516C33.8381 71.7225 33.7826 78.9291 33.7281 86.1356C39.5367 82.9522 50.3366 75.9648 58.5032 62.874C63.2812 55.2152 65.6251 47.924 66.8408 42.6228C67.1141 39.9774 67.3875 37.332 67.6609 34.6865C67.9512 31.7674 68.2819 24.4744 64.2432 16.6246C60.6282 9.5968 55.3852 5.76549 52.8985 4.17334V27.2976C52.6852 27.3888 52.471 27.48 52.2578 27.5712C52.0783 27.6484 51.8979 27.7245 51.7185 27.8016C49.0139 28.9565 46.3092 30.1113 43.6045 31.2662L45.381 38.3815C44.2612 39.3031 42.1728 40.7683 39.1826 41.5291C36.9486 42.0971 35.018 42.0651 33.7281 41.9391C33.7281 44.8121 33.7281 47.6861 33.7281 50.5591C36.5982 51.0538 37.671 52.5133 37.9416 52.9196C39.7725 55.6703 38.5127 60.7929 33.8935 64.516ZM45.8517 36.336C45.6055 35.058 45.4487 33.7433 44.8972 32.563C44.8051 32.3665 44.8418 32.1295 45.0409 32.0129C45.0579 32.0035 45.0785 32.0016 45.0973 31.9941C45.1424 31.9536 45.1969 31.9188 45.2739 31.9038C47.6329 31.4176 49.7072 30.1386 51.9712 29.3722C52.1018 29.328 52.2098 29.3534 52.2935 29.4126C52.3226 29.4239 52.347 29.4436 52.3733 29.4606C52.6054 29.4145 52.8571 29.532 52.8214 29.8283C52.4926 32.5668 50.5874 34.4796 49.3107 36.7931C48.8917 37.553 48.4577 38.4088 47.8114 39.004C47.6968 39.1094 47.5765 39.1818 47.4553 39.2345C47.4459 39.2392 47.4365 39.2439 47.4271 39.2476C46.9771 39.4282 46.5337 39.2457 46.4247 38.6815C46.4219 38.6711 46.4125 38.6683 46.4107 38.657C46.4031 38.6175 46.3909 38.5799 46.3825 38.5404C46.3205 38.4511 46.2895 38.3429 46.3064 38.2301C46.2284 37.9282 46.141 37.6282 46.0499 37.3301C45.9503 37 45.8911 36.6718 45.8517 36.336Z" fill="#5ACE47"/>
<path d="M18.8737 17.2406L22.2904 4.17334C23.8001 4.62381 25.6151 5.04794 27.6894 5.30186C30.069 5.59433 32.1818 5.58963 33.9189 5.47301C33.9189 11.7222 33.9189 17.9704 33.9189 24.2186C31.6924 23.9948 28.2136 23.3534 24.4774 21.3456C22.018 20.0233 20.1701 18.498 18.8737 17.2406Z" fill="#6BF155"/>
<path d="M45.6649 4.17334C43.8555 4.69622 41.6337 5.1796 39.07 5.4053C37.1601 5.5727 35.4268 5.56612 33.9199 5.47395C33.9199 11.7231 33.9199 17.9713 33.9199 24.2195C35.9914 24.054 39.1648 23.5443 42.6577 21.8929C45.4864 20.5556 47.5654 18.923 48.9454 17.6516C47.8519 13.1582 46.7584 8.66577 45.6649 4.17334Z" fill="#5ACE47"/>
</svg>
